Coordinates
version=1
nRows=24
nColumns=38
inDegrees=no

Units are S.I. units (second, meters, Newtons, ...)
If the header above contains a line with 'inDegrees', this indicates whether rotational values are in degrees (yes) or radians (no).

endheader
time	pelvis_tilt	pelvis_list	pelvis_rotation	pelvis_tx	pelvis_ty	pelvis_tz	hip_flexion_r	hip_adduction_r	hip_rotation_r	knee_angle_r	ankle_angle_r	subtalar_angle_r	mtp_angle_r	hip_flexion_l	hip_adduction_l	hip_rotation_l	knee_angle_l	ankle_angle_l	subtalar_angle_l	mtp_angle_l	lumbar_extension	lumbar_bending	lumbar_rotation	arm_flex_r	arm_add_r	arm_rot_r	elbow_flex_r	pro_sup_r	wrist_flex_r	wrist_dev_r	arm_flex_l	arm_add_l	arm_rot_l	elbow_flex_l	pro_sup_l	wrist_flex_l	wrist_dev_l
2.14	-0.125696	0.0185963	-0.0344387	0.949081	1.00443	-0.341818	0.139436	0.110859	0.127202	-0.601333	0.370563	0.0188018	-3.29375e-06	0.739596	-0.0620467	-0.0998685	-1.51491	0.129263	0.0810289	-2.54376e-06	-0.156316	-0.0172953	0.15853	-0.158213	-0.374449	-0.0572825	1.88466	1.87805	0.0750904	0.0825441	-0.66428	-0.221347	-0.104901	1.85647	1.81548	0.1	0.0919909
2.15	-0.128728	0.026895	-0.029526	0.950215	1.01132	-0.341571	0.0876667	0.0956395	0.1163	-0.547623	0.307781	0.0188018	-3.29375e-06	0.751455	-0.0542173	-0.113401	-1.44046	0.132811	0.0810289	-2.54376e-06	-0.149274	-0.0304816	0.166128	-0.150817	-0.367731	-0.0501424	1.93088	1.89743	0.0750904	0.0825441	-0.688365	-0.221444	-0.114706	1.89172	1.80981	0.1	0.0919909
2.16	-0.131438	0.0344728	-0.0232281	0.951668	1.01844	-0.341468	0.0384656	0.0810064	0.0998525	-0.496486	0.234453	0.0188018	-3.29375e-06	0.757429	-0.0459465	-0.128201	-1.35825	0.13578	0.0810289	-2.54376e-06	-0.142372	-0.0424855	0.171322	-0.146509	-0.361794	-0.0428541	1.97761	1.91877	0.0750904	0.0825441	-0.711761	-0.220178	-0.125043	1.92587	1.80743	0.1	0.0919909
2.17	-0.13374	0.041005	-0.0154957	0.953363	1.02558	-0.341598	-0.00733038	0.0675166	0.0784767	-0.449881	0.153706	0.0188018	-3.29375e-06	0.757855	-0.0363094	-0.142169	-1.26934	0.13828	0.0810289	-2.54376e-06	-0.13587	-0.0526794	0.174217	-0.144983	-0.357119	-0.035319	2.02347	1.94073	0.0750904	0.0825441	-0.733729	-0.21733	-0.13542	1.95715	1.80754	0.1	0.0919909
2.18	-0.135599	0.0462063	-0.00647847	0.955218	1.03253	-0.342028	-0.0490274	0.0556629	0.0535032	-0.409605	0.0693131	0.0188018	-3.29375e-06	0.753194	-0.0246074	-0.153299	-1.17499	0.140387	0.0810289	-2.54376e-06	-0.129902	-0.0605531	0.175161	-0.146051	-0.354041	-0.0275802	2.06725	1.96172	0.0750904	0.0825441	-0.753688	-0.212783	-0.145375	1.9844	1.80936	0.1	0.0919909
2.19	-0.137012	0.0498491	0.00346575	0.957154	1.03909	-0.342782	-0.0860404	0.0458612	0.0268767	-0.377343	-0.0145951	0.0188018	-3.29375e-06	0.744014	-0.0105819	-0.160002	-1.07669	0.142165	0.0810289	-2.54376e-06	-0.124521	-0.0657721	0.174686	-0.149551	-0.3527	-0.0197599	2.10779	1.9801	0.0750904	0.0825441	-0.771232	-0.20652	-0.154561	2.00711	1.81226	0.1	0.0919909
2.2	-0.137968	0.0517979	0.0138011	0.959099	1.04509	-0.343831	-0.117866	0.0384347	0.000947804	-0.354678	-0.0938655	0.0188018	-3.29375e-06	0.730966	0.00548238	-0.161378	-0.976208	0.143704	0.0810289	-2.54376e-06	-0.11976	-0.0682273	0.173423	-0.155264	-0.353021	-0.0120214	2.14396	1.99438	0.0750904	0.0825441	-0.786124	-0.198633	-0.162805	2.02527	1.81581	0.1	0.0919909
2.21	-0.13843	0.0520332	0.0238797	0.960988	1.05038	-0.345091	-0.144085	0.0335895	-0.021819	-0.343058	-0.164682	0.0188018	-3.29375e-06	0.714758	0.0228038	-0.15737	-0.875614	0.145124	0.0810289	-2.54376e-06	-0.115684	-0.0680737	0.171989	-0.162875	-0.354715	-0.00456633	2.17471	2.00358	0.0750904	0.0825441	-0.798269	-0.189311	-0.17011	2.0393	1.81971	0.1	0.0919909
2.22	-0.138342	0.0506663	0.0330425	0.96276	1.05485	-0.346429	-0.164398	0.0313889	-0.0391896	-0.343708	-0.223905	0.0188018	-3.29375e-06	0.696129	0.0402784	-0.14876	-0.77722	0.14656	0.0810289	-2.54376e-06	-0.112432	-0.0657303	0.17089	-0.171983	-0.357303	0.00234184	2.19909	2.00737	0.0750904	0.0825441	-0.807686	-0.17884	-0.176622	2.04987	1.82379	0.1	0.0919909
2.23	-0.137625	0.047947	0.0407349	0.964364	1.05841	-0.347695	-0.178653	0.0317421	-0.0495143	-0.357498	-0.269357	0.0188018	-3.29375e-06	0.675819	0.056721	-0.136986	-0.683491	0.148091	0.0810289	-2.54376e-06	-0.110198	-0.0618201	0.170429	-0.182161	-0.360184	0.00834958	2.21636	2.00613	0.0750904	0.0825441	-0.814476	-0.167584	-0.182563	2.05775	1.8279	0.1	0.0919909
2.24	-0.136213	0.0442327	0.0466058	0.965762	1.061	-0.34875	-0.186852	0.0344058	-0.0520232	-0.384821	-0.300019	0.0188018	-3.29375e-06	0.654575	0.0711028	-0.123835	-0.596902	0.149673	0.0810289	-2.54376e-06	-0.109166	-0.0570565	0.170675	-0.193055	-0.36272	0.0130054	2.22606	2.00083	0.0750904	0.0825441	-0.81879	-0.155963	-0.188139	2.06372	1.8319	0.1	0.0919909
2.25	-0.134098	0.0399265	0.0505681	0.966933	1.0626	-0.349497	-0.189119	0.0389919	-0.0470398	-0.42552	-0.316096	0.0188018	-3.29375e-06	0.633148	0.0827132	-0.111097	-0.519771	0.151084	0.0810289	-2.54376e-06	-0.109418	-0.0521093	0.171462	-0.204456	-0.364348	0.0158014	2.22812	1.99276	0.0750904	0.0825441	-0.820813	-0.144418	-0.193476	2.06841	1.8357	0.1	0.0919909
2.26	-0.131375	0.0354015	0.0527888	0.967883	1.0632	-0.349894	-0.185644	0.0449756	-0.0359764	-0.478886	-0.318928	0.0188018	-3.29375e-06	0.612308	0.0912268	-0.100259	-0.454108	0.151926	0.0810289	-2.54376e-06	-0.110859	-0.0475018	0.172438	-0.216335	-0.364657	0.0162601	2.22277	1.98322	0.0750904	0.0825441	-0.820743	-0.133383	-0.198584	2.07233	1.83929	0.1	0.0919909
2.27	-0.128263	0.0309568	0.0536266	0.968621	1.06281	-0.349959	-0.176638	0.0517089	-0.0211	-0.543711	-0.310739	0.0188018	-3.29375e-06	0.592833	0.0966846	-0.0922659	-0.401497	0.151688	0.0810289	-2.54376e-06	-0.113203	-0.043563	0.173151	-0.228798	-0.363434	0.0140448	2.21051	1.97336	0.0750904	0.0825441	-0.818765	-0.12326	-0.203374	2.07577	1.84264	0.1	0.0919909
2.28	-0.125084	0.0268011	0.05354	0.969152	1.06141	-0.349757	-0.162326	0.0584407	-0.00512706	-0.618382	-0.294274	0.0188018	-3.29375e-06	0.575486	0.0994301	-0.0874108	-0.363028	0.149858	0.0810289	-2.54376e-06	-0.116015	-0.0404462	0.173117	-0.242001	-0.360652	0.00905307	2.19202	1.9641	0.0750904	0.0825441	-0.815023	-0.114407	-0.207699	2.07884	1.84572	0.1	0.0919909
2.29	-0.122212	0.0230782	0.0530046	0.969476	1.05899	-0.349376	-0.142971	0.0643554	0.00924507	-0.700986	-0.272375	0.0188018	-3.29375e-06	0.560966	0.100031	-0.0853538	-0.339315	0.146086	0.0810289	-2.54376e-06	-0.118815	-0.0381821	0.171881	-0.256042	-0.356431	0.00145253	2.16795	1.95607	0.0750904	0.0825441	-0.809579	-0.107129	-0.211397	2.08143	1.84841	0.1	0.0919909
2.3	-0.120001	0.0199155	0.0524482	0.969588	1.05551	-0.348913	-0.118905	0.0686166	0.0197717	-0.789444	-0.24757	0.0188018	-3.29375e-06	0.549877	0.099201	-0.0853133	-0.330587	0.140411	0.0810289	-2.54376e-06	-0.121178	-0.0367556	0.16905	-0.270889	-0.350982	-0.00834422	2.13885	1.94966	0.0750904	0.0825441	-0.802386	-0.101671	-0.21432	2.08325	1.85048	0.1	0.0919909
2.31	-0.118679	0.0174344	0.0521999	0.969484	1.05097	-0.348446	-0.0905246	0.0704211	0.0250019	-0.881664	-0.221768	0.0188018	-3.29375e-06	0.542686	0.0977519	-0.0863041	-0.336764	0.133473	0.0810289	-2.54376e-06	-0.122817	-0.0361974	0.164319	-0.286327	-0.344552	-0.0197546	2.10509	1.94501	0.0750904	0.0825441	-0.793268	-0.0982082	-0.21634	2.08375	1.85169	0.1	0.0919909
2.32	-0.118322	0.0157881	0.0524647	0.96916	1.04534	-0.348037	-0.0582967	0.0690965	0.02445	-0.975662	-0.196149	0.0188018	-3.29375e-06	0.539657	0.0965432	-0.0873368	-0.357481	0.126674	0.0810289	-2.54376e-06	-0.123652	-0.0366184	0.157473	-0.301961	-0.337384	-0.0321254	2.06682	1.9422	0.0750904	0.0825441	-0.781901	-0.0968407	-0.217331	2.08217	1.85175	0.1	0.0919909
2.33	-0.118858	0.0151633	0.0533237	0.968593	1.03866	-0.347713	-0.0227304	0.0642144	0.0185958	-1.06964	-0.171234	0.0188018	-3.29375e-06	0.540747	0.0963952	-0.0875663	-0.391985	0.122177	0.0810289	-2.54376e-06	-0.123832	-0.0381918	0.148406	-0.317262	-0.329686	-0.0448331	2.024	1.94128	0.0750904	0.0825441	-0.767824	-0.0975952	-0.217151	2.07755	1.85042	0.1	0.0919909
2.34	-0.120081	0.0157448	0.0547442	0.967763	1.03105	-0.347475	0.0156644	0.0557049	0.00873621	-1.16203	-0.147083	0.0188018	-3.29375e-06	0.545492	0.0979747	-0.0863934	-0.438914	0.122638	0.0810289	-2.54376e-06	-0.123696	-0.0410873	0.137142	-0.331652	-0.321623	-0.0573671	1.97657	1.94246	0.0750904	0.0825441	-0.750471	-0.10043	-0.215621	2.06886	1.84755	0.1	0.0919909
2.35	-0.12171	0.0176473	0.0565933	0.966658	1.02282	-0.347294	0.0564335	0.0439298	-0.00326982	-1.25143	-0.123538	0.0188018	-3.29375e-06	0.552908	0.101678	-0.083518	-0.496026	0.130603	0.0810289	-2.54376e-06	-0.123672	-0.0453867	0.12386	-0.344628	-0.313318	-0.0693853	1.92457	1.94613	0.0750904	0.0825441	-0.72925	-0.105244	-0.212517	2.05511	1.84307	0.1	0.0919909
2.36	-0.123386	0.0208093	0.0586351	0.96529	1.01442	-0.347116	0.0992185	0.0296979	-0.015275	-1.33658	-0.10041	0.0188018	-3.29375e-06	0.561493	0.107537	-0.0789938	-0.560056	0.147821	0.0810289	-2.54376e-06	-0.124138	-0.0510208	0.108919	-0.355885	-0.304885	-0.0807242	1.86838	1.95275	0.0750904	0.0825441	-0.703675	-0.111868	-0.207604	2.03561	1.83711	0.1	0.0919909
2.37	-0.124863	0.0250534	0.0605293	0.963681	1.00635	-0.346891	0.143746	0.0142151	-0.0251509	-1.41632	-0.0775704	0.0188018	-3.29375e-06	0.569308	0.115185	-0.073172	-0.626832	0.174686	0.0810289	-2.54376e-06	-0.125337	-0.0576928	0.0928422	-0.365422	-0.296464	-0.0913695	1.80886	1.96271	0.0750904	0.0825441	-0.673532	-0.120052	-0.200705	2.01021	1.82993	0.1	0.0919909
